<svg xmlns="http://www.w3.org/2000/svg" viewBox="0 0 128 128" role="img" aria-labelledby="pack-icon-title pack-icon-desc">
  <title id="pack-icon-title">Pack icon</title>
  <desc id="pack-icon-desc">A compact document with a blue download badge for ComplyEaze Pack.</desc>
  <defs>
    <linearGradient id="download-blue" x1="72" y1="70" x2="122" y2="121" gradientUnits="userSpaceOnUse">
      <stop offset="0" stop-color="#2F80ED"/>
      <stop offset="1" stop-color="#1556D8"/>
    </linearGradient>
  </defs>
  <rect x="18" y="23" width="65" height="83" rx="12" transform="rotate(-6 50.5 64.5)" fill="#E4F0FF" stroke="#7DB2F5" stroke-width="3"/>
  <path d="M38 14h49l25 25v67c0 7-5 12-12 12H38c-7 0-12-5-12-12V26c0-7 5-12 12-12z" fill="#FFFFFF" stroke="#A9CBF7" stroke-width="3"/>
  <path d="M87 15v17c0 5 4 9 9 9h16z" fill="#C7DFFF" stroke="#9EC3F5" stroke-width="2"/>
  <rect x="43" y="49" width="37" height="5" rx="2.5" fill="#BCD8FB"/>
  <rect x="43" y="66" width="54" height="5" rx="2.5" fill="#BCD8FB"/>
  <circle cx="88" cy="88" r="32" fill="url(#download-blue)"/>
  <path d="M88 70v28" fill="none" stroke="#FFFFFF" stroke-width="7" stroke-linecap="round"/>
  <path d="M76 89l12 12 13-12" fill="none" stroke="#FFFFFF" stroke-width="7" stroke-linecap="round" stroke-linejoin="round"/>
  <path d="M70 109h36" fill="none" stroke="#FFFFFF" stroke-width="7" stroke-linecap="round"/>
</svg>
