<svg xmlns="http://www.w3.org/2000/svg" role="img" viewBox="0 0 260 72" aria-labelledby="title">
<title id="title">Pack by ComplyEaze compact header logo</title>


<g transform="translate(2 2) scale(0.132)">
    <!-- stacked return documents -->
    <path d="M196 46H335L394 105V258H196C178 258 164 244 164 226V78C164 60 178 46 196 46Z" fill="#A9C8FF"/>
    <path d="M335 46V105H394" fill="none" stroke="#FFFFFF" stroke-width="16" stroke-linejoin="round" opacity="0.8"/>

    <path d="M154 76H307L366 135V281H154C136 281 122 267 122 249V108C122 90 136 76 154 76Z" fill="#6E9FFF"/>
    <path d="M307 76V135H366" fill="none" stroke="#FFFFFF" stroke-width="16" stroke-linejoin="round" opacity="0.86"/>

    <path d="M112 111H279L338 170V302H112C94 302 80 288 80 270V143C80 125 94 111 112 111Z" fill="#E6F0FF" stroke="#BFD4FF" stroke-width="6"/>
    <path d="M279 111V170H338" fill="none" stroke="#FFFFFF" stroke-width="16" stroke-linejoin="round"/>

    <!-- packed folder / archive pouch -->
    <path d="M62 206C62 184 80 166 102 166H176L207 198H410C432 198 450 216 450 238V392C450 424 424 450 392 450H120C88 450 62 424 62 392V206Z" fill="#1456D9"/>
    <path d="M62 250C116 270 181 281 256 281C331 281 396 270 450 250V392C450 424 424 450 392 450H120C88 450 62 424 62 392V250Z" fill="#0D2A66" opacity="0.22"/>

    <!-- zipper -->
    <path d="M256 207V342" stroke="#FFFFFF" stroke-width="16" stroke-linecap="round"/>
    <path d="M235 229H277M235 257H277M235 285H277M235 313H277" stroke="#FFFFFF" stroke-width="11" stroke-linecap="round"/>
    <path d="M256 342C232 342 216 359 216 382C216 405 233 420 256 420C279 420 296 405 296 382C296 359 280 342 256 342ZM256 365C266 365 272 372 272 382C272 392 266 398 256 398C246 398 240 392 240 382C240 372 246 365 256 365Z" fill="#FFFFFF"/>

    <!-- completed / trusted badge -->
    <circle cx="402" cy="142" r="47" fill="#20C997" stroke="#FFFFFF" stroke-width="8"/>
    <path d="M380 142L395 157L425 126" fill="none" stroke="#FFFFFF" stroke-width="14" stroke-linecap="round" stroke-linejoin="round"/>
    </g>
<path d="M96 0H456V482H704C1049 482 1267 677 1267 986C1267 1295 1051 1490 706 1490H96ZM456 781V1192H681C825 1192 916 1113 916 986C916 860 825 781 681 781Z" fill="#0D2A66" opacity="1" transform="translate(79.000 35.000) scale(0.0170898 -0.0170898)"/>
<path d="M419 -18C568 -18 663 34 726 148H730V0H1066V711C1066 944 897 1079 590 1079C284 1079 111 943 96 714H416C423 786 482 832 578 832C669 832 725 789 725 726V721C725 658 656 643 467 627C242 609 57 532 57 295C57 85 208 -18 419 -18ZM524 207C440 207 383 246 383 311C383 380 449 418 541 432C626 446 691 459 728 476V380C728 276 639 207 524 207Z" fill="#0D2A66" opacity="1" transform="translate(100.971 35.000) scale(0.0170898 -0.0170898)"/>
<path d="M598 -24C897 -24 1109 160 1116 418H783C770 315 707 249 605 249C477 249 401 355 401 528C401 701 476 807 605 807C707 807 773 742 784 641H1116C1101 900 892 1080 598 1080C271 1080 52 856 52 528C52 199 271 -24 598 -24Z" fill="#0D2A66" opacity="1" transform="translate(120.429 35.000) scale(0.0170898 -0.0170898)"/>
<path d="M96 0H440V314L513 399L782 0H1179L769 595L1162 1056H765L444 681H440V1490H96Z" fill="#0D2A66" opacity="1" transform="translate(139.922 35.000) scale(0.0170898 -0.0170898)"/>
<path d="M703 -22C975 -22 1170 195 1170 556C1170 920 971 1132 703 1132C494 1132 419 1005 380 936H368V1490H148V0H362V175H380C419 104 500 -22 703 -22ZM654 165C468 165 364 325 364 558C364 790 465 945 654 945C848 945 945 778 945 558C945 336 845 165 654 165Z" fill="#68758A" opacity="1" transform="translate(81.000 61.000) scale(0.0073242 -0.0073242)"/>
<path d="M133 -402C160 -414 218 -426 287 -426C467 -426 578 -334 646 -155L1132 1118H896L671 483C636 386 611 289 586 193C562 289 539 385 505 483L284 1118H46L471 -5L447 -87C406 -231 326 -259 212 -229L187 -223Z" fill="#68758A" opacity="1" transform="translate(90.272 61.000) scale(0.0073242 -0.0073242)"/>
<path d="M785 -20C1137 -20 1373 211 1414 496H1144C1110 320 966 219 788 219C546 219 371 402 371 744C371 1082 545 1271 789 1271C967 1271 1111 1170 1144 994H1413C1366 1320 1112 1510 785 1510C396 1510 103 1226 103 744C103 264 393 -20 785 -20Z" fill="#1E5BFF" opacity="1" transform="translate(101.000 61.000) scale(0.0073242 -0.0073242)"/>
<path d="M623 -23C949 -23 1158 209 1158 553C1158 901 949 1132 623 1132C297 1132 89 901 89 553C89 209 297 -23 623 -23ZM623 188C442 188 354 350 354 554C354 760 442 921 623 921C805 921 894 760 894 554C894 350 805 188 623 188Z" fill="#1E5BFF" opacity="1" transform="translate(112.052 61.000) scale(0.0073242 -0.0073242)"/>
<path d="M138 0H398V685C398 834 492 914 606 914C716 914 795 840 795 726V0H1049V702C1049 827 1126 914 1252 914C1359 914 1446 852 1446 714V0H1706V754C1706 1002 1552 1136 1351 1136C1194 1136 1054 1054 994 893C946 1052 851 1136 707 1136C574 1136 448 1064 390 905L382 1118H138Z" fill="#1E5BFF" opacity="1" transform="translate(121.186 61.000) scale(0.0073242 -0.0073242)"/>
<path d="M138 -418H398V177H409C449 96 536 -20 728 -20C993 -20 1190 190 1190 557C1190 929 987 1132 729 1132C530 1132 448 1012 409 933H392V1118H138ZM658 194C488 194 393 340 393 558C393 776 486 918 658 918C834 918 923 766 923 558C923 348 832 194 658 194Z" fill="#1E5BFF" opacity="1" transform="translate(134.691 61.000) scale(0.0073242 -0.0073242)"/>
<path d="M398 1490H138V0H398Z" fill="#1E5BFF" opacity="1" transform="translate(144.052 61.000) scale(0.0073242 -0.0073242)"/>
<path d="M127 -399C162 -413 227 -426 301 -426C503 -426 618 -323 686 -144L1166 1118H891L680 510C647 414 622 317 597 219C575 317 553 413 521 510L317 1118H39L461 -4L445 -75C418 -203 336 -235 219 -204L188 -196Z" fill="#1E5BFF" opacity="1" transform="translate(147.978 61.000) scale(0.0073242 -0.0073242)"/>
<path d="M150 0H1122V225H417V641H1066V863H417V1265H1118V1490H150Z" fill="#1E5BFF" opacity="1" transform="translate(156.803 61.000) scale(0.0073242 -0.0073242)"/>
<path d="M450 -23C624 -23 730 58 779 154H789V0H1038V747C1038 1045 792 1132 582 1132C358 1132 174 1037 108 840L349 791C376 865 453 932 583 932C710 932 778 868 778 759V754C778 677 696 674 502 653C286 630 76 566 76 314C76 94 237 -23 450 -23ZM517 170C407 170 328 220 328 317C328 419 416 462 533 478C600 487 745 505 780 533V401C780 277 677 170 517 170Z" fill="#1E5BFF" opacity="1" transform="translate(165.885 61.000) scale(0.0073242 -0.0073242)"/>
<path d="M122 0H1037V217H468V226L1018 938V1118H140V901H699V892L122 166Z" fill="#1E5BFF" opacity="1" transform="translate(174.499 61.000) scale(0.0073242 -0.0073242)"/>
<path d="M632 -23C881 -23 1055 96 1109 277L870 326C835 231 749 181 635 181C468 181 355 287 348 486H1126V568C1126 960 888 1132 615 1132C295 1132 89 896 89 552C89 202 295 -23 632 -23ZM349 663C361 812 457 928 616 928C771 928 858 823 873 663Z" fill="#1E5BFF" opacity="1" transform="translate(182.987 61.000) scale(0.0073242 -0.0073242)"/>

</svg>
