<svg xmlns="http://www.w3.org/2000/svg" width="1280" height="800" viewBox="0 0 1280 800" role="img" aria-labelledby="title desc">
  <title id="title">Synthetic Pack review state screenshot source</title>
  <desc id="desc">Synthetic screenshot showing local review state without real GST data.</desc>
  <defs>
    <linearGradient id="bg" x1="0" y1="0" x2="1" y2="1">
      <stop offset="0" stop-color="#eff6ff" />
      <stop offset="1" stop-color="#ecfeff" />
    </linearGradient>
    <filter id="shadow" x="-10%" y="-10%" width="120%" height="120%">
      <feDropShadow dx="0" dy="14" stdDeviation="18" flood-color="#0f172a" flood-opacity="0.14" />
    </filter>
  </defs>
  <rect width="1280" height="800" fill="url(#bg)" />
  <rect x="72" y="64" width="1136" height="672" rx="26" fill="#ffffff" filter="url(#shadow)" />
  <rect x="72" y="64" width="1136" height="92" rx="26" fill="#0f6b73" />
  <text x="120" y="122" fill="#ffffff" font-family="Inter, Arial, sans-serif" font-size="30" font-weight="800">ComplyEaze Pack</text>
  <text x="838" y="122" fill="#ccfbf1" font-family="Inter, Arial, sans-serif" font-size="18" font-weight="700">Local review state</text>
  <text x="120" y="216" fill="#0f172a" font-family="Inter, Arial, sans-serif" font-size="38" font-weight="780">When a target needs review</text>
  <text x="120" y="258" fill="#64748b" font-family="Inter, Arial, sans-serif" font-size="19">Pack stops and records safe local signals instead of retrying blindly.</text>
  <rect x="120" y="306" width="480" height="280" rx="22" fill="#f8fafc" stroke="#dbeafe" />
  <text x="158" y="360" fill="#0f172a" font-family="Inter, Arial, sans-serif" font-size="24" font-weight="780">Selected target</text>
  <rect x="158" y="394" width="176" height="48" rx="12" fill="#e2e8f0" />
  <text x="184" y="424" fill="#334155" font-family="Inter, Arial, sans-serif" font-size="17" font-weight="700">FY 2025-26</text>
  <rect x="354" y="394" width="112" height="48" rx="12" fill="#e2e8f0" />
  <text x="386" y="424" fill="#334155" font-family="Inter, Arial, sans-serif" font-size="17" font-weight="700">June</text>
  <rect x="158" y="466" width="160" height="48" rx="12" fill="#0f766e" />
  <text x="204" y="496" fill="#ffffff" font-family="Inter, Arial, sans-serif" font-size="17" font-weight="750">GSTR-1</text>
  <rect x="338" y="466" width="190" height="48" rx="12" fill="#243b53" />
  <text x="382" y="496" fill="#ffffff" font-family="Inter, Arial, sans-serif" font-size="17" font-weight="750">Summary PDF</text>
  <rect x="158" y="538" width="342" height="40" rx="20" fill="#fef3c7" />
  <text x="182" y="564" fill="#92400e" font-family="Inter, Arial, sans-serif" font-size="15" font-weight="700">Needs user review before another attempt</text>
  <rect x="650" y="306" width="438" height="280" rx="22" fill="#f8fafc" stroke="#dbeafe" />
  <text x="688" y="360" fill="#0f172a" font-family="Inter, Arial, sans-serif" font-size="24" font-weight="780">Safe signals only</text>
  <rect x="688" y="394" width="326" height="44" rx="12" fill="#e0f2fe" />
  <text x="712" y="422" fill="#075985" font-family="Inter, Arial, sans-serif" font-size="16" font-weight="700">Browser did not confirm a file</text>
  <rect x="688" y="454" width="326" height="44" rx="12" fill="#e0f2fe" />
  <text x="712" y="482" fill="#075985" font-family="Inter, Arial, sans-serif" font-size="16" font-weight="700">No portal HTML stored</text>
  <rect x="688" y="514" width="326" height="44" rx="12" fill="#e0f2fe" />
  <text x="712" y="542" fill="#075985" font-family="Inter, Arial, sans-serif" font-size="16" font-weight="700">No filenames or local paths persisted</text>
  <rect x="120" y="626" width="968" height="54" rx="18" fill="#ecfeff" stroke="#99f6e4" />
  <text x="154" y="660" fill="#0f766e" font-family="Inter, Arial, sans-serif" font-size="17" font-weight="750">Synthetic screenshot. Real GSTIN, PAN, taxpayer names, values, filenames, and portal captures are excluded.</text>
</svg>
